<?xml version="1.0" encoding="utf-8"?>
<!-- Generator: Adobe Illustrator 19.2.1, SVG Export Plug-In . SVG Version: 6.00 Build 0)  -->
<svg version="1.1" id="Layer_1" xmlns="http://www.w3.org/2000/svg" xmlns:xlink="http://www.w3.org/1999/xlink" x="0px" y="0px"
	 viewBox="0 0 431 459.8" style="enable-background:new 0 0 431 459.8;" xml:space="preserve">
<g>
	<g>
		<path d="M218.3,16c15.5-1.7,33.1,0.9,50.1,6.4c24.5,7.8,47.1,19.1,67,35.8c15.1,12.6,28.1,26.9,38.6,43.4
			c13.5,21.2,23.8,44,26.9,69.1c3.7,29.3,4.1,58.9-4.8,87.5c-6.1,19.6-15.3,38.1-27.6,54.9c-20.1,27.4-45.6,47.9-76.3,62.4
			c-14.2,6.7-29.5,9.8-43.9,16c-16,6.9-21.2,14.3-19.7,31.9c0.5,5.9-0.5,11.9,1.5,17.7c0.4,1.1,0,3.3-0.8,3.9
			c-1.3,1.1-3.3,0.4-4.6-0.7c-2.4-1.9-4.9-3.6-6.8-5.9c-10.1-12.7-19.8-25.8-29.9-38.4c-5.9-7.3-12.4-12.7-22.6-15.2
			c-25.1-6.1-47.4-18.5-67.6-34.7c-22.8-18.3-40.4-40.7-52.9-67c-9.7-20.4-16-41.9-15.7-64.8c0.2-16-1.6-32,1.2-47.9
			C36,137.6,49.7,108.7,70.9,83c16.5-20,36-36.1,58.9-47.2C155.3,23.4,175.9,14.1,218.3,16z M214.6,371.1
			C308.9,371.9,381,295,382,207.8c1.1-97.5-74.1-170-164.9-170.9c-96.3-1-165.8,73.7-169.5,160.5
			C43.4,295.1,124.2,372.8,214.6,371.1z"/>
		<path d="M66.6,188.9c-0.4-5.8,1.7-10.7,5.3-15.2c7.9-9.6,16.2-19,23.3-29.1c7.8-11.1,18-14.1,30.6-12c12.3,2.1,24.5,4.2,36.8,6.2
			c9.6,1.6,16,7,19.5,16c5.1,13.4,10.4,26.7,15.3,40.2c2.9,8,1.6,15.5-3.7,22.2c-9.1,11.4-18,23-27.6,34
			c-6.6,7.5-14.5,11.3-25.4,8.5c-12-3.1-24.4-4.4-36.7-6.2c-11.1-1.6-18.1-7.6-21.8-18.1c-4.3-11.9-8.9-23.7-13.6-35.5
			C67.1,196.4,66.3,192.7,66.6,188.9z"/>
		<path d="M252.6,337.7c-15.8-4.4-32.9-5.1-49.4-9.2c-6.7-1.7-11.5-6.8-14.1-13.4c-5.5-14-10.8-28.1-16.2-42.2
			c-2.9-7.7-0.9-14.8,3.9-20.9c9.1-11.7,18.3-23.4,27.9-34.7c6-7,13.7-9.7,23.2-7.9c12.4,2.4,25,4.3,37.6,5.9
			c11.4,1.5,18.7,7.3,22.6,18.1c5,13.5,10.5,26.7,15.7,40.1c2.8,7.3,0.2,13.8-4.1,19.5c-9.4,12.1-18.9,24.1-28.8,35.8
			C266.4,334.1,260.2,336.8,252.6,337.7z"/>
		<path d="M190.4,143.5c-1.7-9.3,0.5-17.2,7.2-24c4.9-5.1,8.5-11.4,13.9-16.1c0.9,0,1.6-0.2,1.6-1.3l-0.1,0.1
			c2.2,0.7,4.3-0.2,6.3-0.8c13.5-4,27.2-4.7,41.1-3.6c17,1.3,32.5,7.3,47.3,15.1c5.9,10.7,9,22.6,13.8,33.8c1.4,3.4,1.8,8-1.4,11.5
			c-9.3-6.3-19.4-11.1-30-14.7C256.8,132.2,223.6,132.3,190.4,143.5z"/>
		<path d="M209.8,192.6c-6.4-8.9-9-19.3-12.3-29.5c39.1-13.8,75.8-7.3,111,12.7c-6.3,8.9-12.8,17.6-20.6,25.3
			C262.8,190.6,236.7,187.9,209.8,192.6z"/>
	</g>
</g>
</svg>
