<?xml version="1.0" encoding="utf-8"?>
<!-- Generator: Adobe Illustrator 19.2.1, SVG Export Plug-In . SVG Version: 6.00 Build 0)  -->
<svg version="1.1" id="Layer_1" xmlns="http://www.w3.org/2000/svg" xmlns:xlink="http://www.w3.org/1999/xlink" x="0px" y="0px"
	 viewBox="0 0 431 459.8" style="enable-background:new 0 0 431 459.8;" xml:space="preserve">
<style type="text/css">
	.st0{fill:#010101;}
</style>
<g>
	<path class="st0" d="M422.5,228.4c0,4.5,0,8.7,0,13.2c-0.5,0.7-1.2,1.2-1.5,1.8c-7.9,20.1-22.4,26.9-43.4,20.6
		c-2-0.5-4.5-0.8-6.1,0c-7.7,4-15.8,7.7-22.8,13c-4,3-8.4,8.7-8.2,13.2c0.2,15.3,2.5,30.3,14.8,41.7c10.1,9.2,12.9,20.9,8.6,33.8
		c-4,11.9-12.5,19.1-25.1,20.9c-13.4,1.8-24.9-2.1-31.7-14.2c-3.6-6.6-8.4-9.6-15-11c-5.3-1.2-10.7-3.6-16-3.5
		c-5.3,0.2-12.4,1.5-15.5,4.9c-9.2,10.4-19.6,21.3-14.3,37.6c0.7,2,0.3,4.3,0.2,6.4c-1.5,15.7-11.7,23.9-25.4,29
		c-4.5,0-8.7,0-13.2,0c-22.1-10.7-25.1-16-23.7-41.5c0.2-1.8-0.7-3.8-1.5-5.4c-3.1-6.1-5.9-12.4-9.6-18.1
		c-11.7-19.1-42.7-18.8-54.6,0.3c-7.1,11.4-17.6,16.7-30.8,15c-13.7-1.6-23.1-9.4-27-23.1c-3.5-12.2,0.2-26.2,10.6-33.1
		c6.8-4.6,9.7-10.4,12-17.6c9.4-28.5,6.6-35.1-20.4-48.5c-4.9-2.5-9.1-3-14.7-1.6c-11.7,3-22.8,0.2-30.7-9.4
		c-4-4.6-6.1-10.9-9.1-16.3c0-3.8,0-7.7,0-11.5c1.2-2.5,2.3-4.8,3.5-7.3c5.8-12.7,19.9-20.9,33.6-17.6c7.4,1.8,13.2-0.2,19.3-3.3
		c25.4-12.9,28.4-19.9,19.8-47c-2-6.3-4.5-10.9-10.4-14.7c-11.5-7.4-15.2-19.3-12.7-32.5c2.3-12.4,10.2-20.8,22.3-23.9
		c12.9-3.5,25.1-0.7,33.1,10.4c4.5,6.1,9.9,8.7,16.5,10.9c28.7,9.4,35.8,6.4,49.1-20.8c2.5-5.1,4-9.9,2.6-16.3
		c-3.8-16.5,4.5-30.3,20.3-36.8c1.5-0.7,2.6-1.5,4.1-2.3c4.5,0,8.7,0,13.2,0c1.6,0.8,3.1,2,4.8,2.6c14.8,6.3,23.1,19.1,19.6,34.8
		c-2,8.9,0.7,15.3,4.3,22.4c12.4,24.1,19.5,26.9,45.3,18.5c5.3-1.6,9.7-3.3,12.9-8.9c6.4-11.9,19-17.3,32-15.2
		c12.9,2,23.1,11,26.1,23.1c3.3,13.7-1.5,26.4-12.9,34.8c-2.3,1.6-4.8,4-5.8,6.4c-2.8,7.7-5.6,15.5-7.3,23.4
		c-1.8,8.1-1.6,16.7,5.9,21.6c12.5,8.2,24.1,19.8,41.4,15.2c1.3-0.3,2.6,0.2,4.1,0.3C409.1,204.7,417.6,214.6,422.5,228.4z
		 M112,317.1c-0.5,12.9,4.6,17.6,13.7,16.2c4.1-0.7,8.1-1.8,11.9-3c8.2-2.8,16.5-6.1,24.9-8.6c12.2-3.6,17-1.6,23.1,9.4
		c4.8,8.6,8.6,17.8,13.4,26.4c3.5,6.3,6.3,14.3,15.3,14.2c8.9-0.2,11.7-8.2,15.2-14.5c4.8-8.6,8.4-17.8,13.4-26.4
		c5.3-9.2,9.7-11.2,19.8-8.6c11.5,3.1,22.9,7.1,34.5,10.9c13.7,4.5,24.1-3.6,18.8-18.6c-3.8-10.2-7.3-20.6-10.2-31.2
		c-3.5-12-1.3-16.8,9.7-22.9c9.9-5.4,20.3-9.7,30-15.3c14.8-8.4,14.8-17.5,0.2-25.9c-9.1-5.1-18.8-9.1-27.9-14
		c-12.7-6.8-14.7-11.4-10.6-25.6c3.1-11,7.4-21.8,10.2-33c3.5-13.8-3.1-20.3-17-16.5c-10.9,3-21.3,7.3-32,10.4
		c-13.4,3.8-18.1,1.8-24.7-10.6c-4.3-7.9-7.9-16.3-12-24.2c-3.6-6.8-6.9-15.5-15.5-15.5c-9.1,0-12.2,9.1-15.8,16
		c-3.8,7.3-6.9,15-10.7,22.3c-6.9,12.9-12,15-26.1,10.7c-10.6-3.1-20.8-7.3-31.3-9.9c-15.5-3.8-21.8,2.6-17.8,17.8
		c3.1,11.9,7.3,23.6,10.9,35.3c2.5,8.2-0.2,14.7-7.6,19c-5.4,3.1-11.2,5.8-16.8,8.7c-6.8,3.6-13.8,6.8-20.1,11
		c-8.9,6.1-8.7,13.7,0.2,19.8c5.9,4,12.4,7.1,18.8,10.1c29.3,13.4,30.2,15.5,19.1,46C115.8,304.9,113.5,312.8,112,317.1z"/>
	<path class="st0" d="M253.3,227.4c21.8,10.4,24.1,23.9,20.9,38.4c-3.6,16.7-16.8,23.4-31.5,24.2c-23.4,1.5-47,0.3-71.1,0.3
		c0-40.2,0-80.3,0-121.5c6.1,0,12,0,18,0c14.5,0,29.2-0.3,43.7,0.2c16.3,0.5,29.3,9.1,33.5,21.1
		C271.3,203.8,267.2,215.6,253.3,227.4z M197.1,267.8c13.5,0,26.5,0.5,39.6-0.2c6.8-0.3,11.7-4.8,12.4-12.2
		c0.5-6.4-2.8-12.2-9.1-12.9c-14.2-1.6-28.5-1.8-42.7-2.6C197.1,250.7,197.1,258.9,197.1,267.8z M197.1,218.4
		c11,0,21.3,0.5,31.3-0.2c8.4-0.5,13.7-5.9,13.7-12.7c0-7.6-4.8-12.2-11.5-12.7c-11-0.8-22.3-0.2-33.5-0.2
		C197.1,201.4,197.1,209.5,197.1,218.4z"/>
</g>
</svg>
