<?xml version="1.0" encoding="utf-8"?>
<!-- Generator: Adobe Illustrator 19.2.1, SVG Export Plug-In . SVG Version: 6.00 Build 0)  -->
<svg version="1.1" id="Layer_1" xmlns="http://www.w3.org/2000/svg" xmlns:xlink="http://www.w3.org/1999/xlink" x="0px" y="0px"
	 viewBox="0 0 318 459.8" style="enable-background:new 0 0 318 459.8;" xml:space="preserve">
<style type="text/css">
	.st0{fill:#FFFFFF;}
</style>
<g>
	<path class="st0" d="M193.4,456.5l9.9-6.9c0,0-20.6-11.4-22.9-27.5c-9.2,0-12.2,0-12.2,0s-32,27.5-59.5,11.4s-59.5-61-73.2-110.6
		c-9.9-29-16-34.3-5.3-84.7s83.8-64.1,83.8-64.1s20-3.1,43.6,7.6c6.9-4.6,12.2-8,12.2-8l-22.1-3.4c0,0-7.2,0.4-17.5-2.3
		c-13-0.4-51.5,5.7-87,25.6c-16.8,9.5-33.6,40.8-33.6,40.8S2.3,257,5,281.4c2.7,24.4,6.5,37,10.7,47.3s35.5,77.8,74,109.1
		c37.8,31.3,74-3.8,74-3.8l3.1-3.4h4.6C171.3,430.5,175.8,445,193.4,456.5z"/>
	<path class="st0" d="M183.1,205.5v-3.1c0,0,9.5-13,20.2-32c-1.5-8.8-1.5-12.6-1.5-12.6s9.9-9.2,21-27.8
		c12.6-18.7,29.4-42.3,29.4-42.3s-16,33.6-20.2,42.7c-4.2,6.1-2.3,12.2,7.6,1.1c8.8-11.1,37.4-42,37.4-42s-5.3-9.2-8.8-13
		c-2.7-1.1,2.3-0.4,6.9,1.9s17.2,7.2,21,7.6c1.9,2.7-5.3,7.6-5.3,7.6s-31.3,29-67.1,72.5c-20.2,27.1-32.8,42-32.8,42L183.1,205.5z"
		/>
	<path class="st0" d="M188.4,50.2C162.9,20.5,149.1,14,115.6,7.9c-3.8,7.2-8,14.1-8,14.1s-31.7,60.3,25.9,103.4
		c38.5,27.8,49.2,27.1,59.1,25.2c6.1-1.1,10.7-1.9,10.7-1.9v-4.6C203.3,144.1,215.9,88.4,188.4,50.2z M196.4,146
		c-24.4,0-37-17.5-49.2-28.2C99.2,72.4,124.7,17,124.7,17c14.3-0.1,30.5,9.9,42.3,23.6C202.9,75,199.1,134.1,196.4,146z"/>
	<g>
		<path class="st0" d="M74.9,380.9v-6.3c3.4-0.2,11.4-0.8,13.9-1.7c4.6-1.7,5.9-4.9,5.9-9.1v-94.1c0-4.2-1.1-7.2-5.9-9.1
			c-3.4-1.3-10.5-3-13.9-3.2v-6.3h59.7v6.3c-3.4,0.2-10.5,1.1-13.9,2.3c-4.8,1.5-5.9,4.9-5.9,9.1v94.1c0,4.2,1.5,7.2,5.9,9.1
			c2.3,0.9,10.5,2.5,13.9,2.7v6.3H74.9z"/>
		<path class="st0" d="M267.1,408.8c-14.1,0-29.8-6.5-35.5-27.6c-4.9,1.5-10.3,2.5-14.8,2.5c-17.3,0-33.1-6.1-45.4-17.7
			c-12.5-11.8-20.3-27.9-20.3-48.7s6.1-37.3,18.4-49.6c12.9-13.1,29.7-19.8,48.1-19.8c17.9,0,34,5.9,48.3,19.8
			c11.2,11.2,18.1,28.7,18.1,47.3c0,23.8-9.9,43.3-32.9,57c4.2,19.2,18.8,23.2,29.1,23.2c8.7,0,17.1-9.1,21.3-15.6l5.3,4.2
			C301.5,391.7,286.1,408.8,267.1,408.8z M217.5,256c-27,0-43.5,22.2-43.5,60.4c0,17.9,3.2,33.6,11.8,44.7
			c6.7-16.7,20-21.9,31.6-21.9c14.8,0,26.6,11,31,24.5c8.9-10.5,12.5-27.4,12.5-48.1C260.8,285.7,249,256,217.5,256z M210.1,349.1
			c-3.6,0-14.3,2.9-18.6,16.7c6.7,7.2,15.2,10.6,26,10.6c4.6,0,9.3-0.8,12.9-1.3C228.9,355.8,221.7,349.1,210.1,349.1z"/>
	</g>
</g>
</svg>
